HIERARCHY
ROOT Hips
{
	OFFSET	0.00	0.00	0.00
	CHANNELS 6 Xposition Yposition Zposition Zrotation Xrotation Yrotation
	JOINT LeftUpLeg
	{
		OFFSET	 0.126116	-0.014019	-0.065224
		CHANNELS 3 Zrotation Xrotation Yrotation
		JOINT LeftLeg
		{
			OFFSET	 0.000000	 0.000000	 0.569914
			CHANNELS 3 Zrotation Xrotation Yrotation
			JOINT LeftFoot
			{
				OFFSET	 0.000000	 0.000000	 0.544423
				CHANNELS 3 Zrotation Xrotation Yrotation
				JOINT LeftToeBase
				{
					OFFSET	 0.000000	 0.000000	 0.207117
					CHANNELS 3 Zrotation Xrotation Yrotation
					End Site
					{
						OFFSET	 0.000000	 0.000000	 0.207117
					}
				}
			}
		}
	}
	JOINT RightUpLeg
	{
		OFFSET	-0.124023	-0.008373	-0.065224
		CHANNELS 3 Zrotation Xrotation Yrotation
		JOINT RightLeg
		{
			OFFSET	 0.000000	 0.000000	 0.570047
			CHANNELS 3 Zrotation Xrotation Yrotation
			JOINT RightFoot
			{
				OFFSET	 0.000000	 0.000000	 0.544354
				CHANNELS 3 Zrotation Xrotation Yrotation
				JOINT RightToeBase
				{
					OFFSET	 0.000000	 0.000000	 0.207540
					CHANNELS 3 Zrotation Xrotation Yrotation
					End Site
					{
						OFFSET	 0.000000	 0.000000	 0.207540
					}
				}
			}
		}
	}
	JOINT Spine
	{
		OFFSET	 0.000184	-0.007763	 0.117403
		CHANNELS 3 Zrotation Xrotation Yrotation
		JOINT Spine1
		{
			OFFSET	 0.000000	 0.000000	 0.137269
			CHANNELS 3 Zrotation Xrotation Yrotation
			JOINT Spine2
			{
				OFFSET	 0.000000	 0.000000	 0.156879
				CHANNELS 3 Zrotation Xrotation Yrotation
				JOINT LeftShoulder
				{
					OFFSET	 0.080501	-0.002496	 0.160144
					CHANNELS 3 Zrotation Xrotation Yrotation
					JOINT LeftArm
					{
						OFFSET	 0.000000	 0.000000	 0.164363
						CHANNELS 3 Zrotation Xrotation Yrotation
						JOINT LeftForeArm
						{
							OFFSET	 0.000000	 0.000000	 0.364576
							CHANNELS 3 Zrotation Xrotation Yrotation
							JOINT LeftHand
							{
								OFFSET	 0.000000	 0.000000	 0.360812
								CHANNELS 3 Zrotation Xrotation Yrotation
								JOINT LeftHandIndex1
								{
									OFFSET	 0.000000	 0.000000	 0.086006
									CHANNELS 3 Zrotation Xrotation Yrotation
									JOINT LeftHandIndex2
									{
										OFFSET	 0.000000	 0.000000	 0.047236
										CHANNELS 3 Zrotation Xrotation Yrotation
										JOINT LeftHandIndex3
										{
											OFFSET	-0.004284	-0.000551	 0.038166
											CHANNELS 3 Zrotation Xrotation Yrotation
											End Site
											{
												OFFSET	-0.004284	-0.000551	 0.038166
											}
										}
									}
								}
							}
						}
					}
				}
				JOINT Neck
				{
					OFFSET	 0.000000	 0.000000	 0.176489
					CHANNELS 3 Zrotation Xrotation Yrotation
					JOINT Head
					{
						OFFSET	 0.000000	-0.001747	 0.077940
						CHANNELS 3 Zrotation Xrotation Yrotation
						End Site
						{
							OFFSET	 0.000000	-0.001747	 0.077940
						}
					}
				}
				JOINT RightShoulder
				{
					OFFSET	-0.080363	 0.000306	 0.159706
					CHANNELS 3 Zrotation Xrotation Yrotation
					JOINT RightArm
					{
						OFFSET	 0.000000	 0.000000	 0.164196
						CHANNELS 3 Zrotation Xrotation Yrotation
						JOINT RightForeArm
						{
							OFFSET	 0.000000	 0.000000	 0.365611
							CHANNELS 3 Zrotation Xrotation Yrotation
							JOINT RightHand
							{
								OFFSET	 0.000000	 0.000000	 0.360648
								CHANNELS 3 Zrotation Xrotation Yrotation
								JOINT RightHandIndex1
								{
									OFFSET	 0.000000	 0.000000	 0.069977
									CHANNELS 3 Zrotation Xrotation Yrotation
									JOINT RightHandIndex2
									{
										OFFSET	 0.000000	 0.000000	 0.052305
										CHANNELS 3 Zrotation Xrotation Yrotation
										JOINT RightHandIndex3
										{
											OFFSET	 0.009002	-0.000782	 0.042196
											CHANNELS 3 Zrotation Xrotation Yrotation
											End Site
											{
												OFFSET	 0.009002	-0.000782	 0.042196
											}
										}
									}
								}
							}
						}
					}
				}
			}
		}
	}
}
MOTION
Frames:    9
Frame Time: 0.03333334
 3.425793	-0.018459	 0.521094	 79.052960	-2.033610	-1.269349	 7.371682	 21.559860	-176.971600	-3.495915	-11.627660	 1.510574	 3.953815	 84.438130	-0.443720	-2.286030	 41.023010	-0.303407	 5.270245	-36.052740	-177.549600	 0.128713	-40.246680	 4.215097	 143.219800	 89.630970	-137.807700	 2.365929	 31.928890	 0.078572	 23.592200	 3.504634	 2.295381	-10.741520	-0.869516	 0.261035	-12.666520	-2.918508	-1.683943	-91.776180	 78.527400	-180.000000	 36.055300	 60.512250	-54.388060	-0.283512	-13.765870	-44.702090	 5.936420	-49.498540	-1.982857	-3.812334	 37.924440	-2.927599	-2.450526	 36.184240	 0.754587	-1.378229	 35.397820	-2.634230	 1.226525	 2.169973	-4.974289	-1.841938	-9.683966	 3.145849	 89.782090	 78.203830	-180.000000	-37.196450	 72.489860	 34.544670	-10.551800	-12.997150	 29.322300	-11.151800	-50.626480	 8.512935	 6.437017	 35.671460	-0.771858	 2.830251	 35.756010	-7.813440	-2.350882	 35.473990	 5.254307
 3.481390	-0.031703	 0.519217	 79.580820	-1.934618	-1.323210	 7.640543	 23.941310	-177.654100	-3.101015	-11.614390	 1.610251	 4.773647	 83.921590	-0.760673	-2.239490	 44.429220	-0.401465	 5.032417	-35.955780	-177.410600	-0.108344	-37.816350	 3.660974	 152.731500	 89.357760	-147.506200	 2.360547	 32.765680	 0.097795	 19.503750	 3.382686	 2.024320	-10.822320	-0.998998	 0.090020	-12.645750	-3.059673	-1.761201	-91.776180	 78.527420	-180.000000	 37.082040	 60.898980	-55.293270	 0.946659	-15.731810	-46.296340	 7.412711	-52.229550	-0.571025	-3.812334	 37.924440	-2.927599	-2.450526	 36.184240	 0.754587	-1.378229	 35.397820	-2.634230	 1.249206	 2.077927	-5.024608	-1.788087	-9.751858	 3.672266	 89.782070	 78.203930	-180.000000	-35.949800	 73.132570	 33.154310	-12.426890	-14.130470	 29.517200	-12.652620	-53.465520	 7.449165	 6.437017	 35.671460	-0.771858	 2.830251	 35.756010	-7.813440	-2.350882	 35.473990	 5.254307
 3.541379	-0.047358	 0.517208	 80.123790	-2.053922	-1.316448	 8.067268	 26.465180	-178.830900	-2.292798	-11.591270	 1.770601	 5.610968	 82.028160	-0.709748	-2.194362	 47.133030	-0.486571	 4.852673	-35.209110	-177.573700	 0.797927	-38.469010	 4.238424	 109.637300	 89.741310	-103.824800	 2.370744	 31.122170	 0.060298	 14.815900	 3.285169	 1.896163	-10.886260	-1.030480	-0.137540	-12.546670	-2.988366	-1.822602	-91.776180	 78.527400	 180.000000	 38.583220	 61.669700	-55.994190	 2.241605	-17.404150	-46.895090	 8.963062	-53.891990	 0.862442	-3.812334	 37.924440	-2.927599	-2.450526	 36.184240	 0.754587	-1.378229	 35.397820	-2.634230	 1.351405	 2.203046	-5.089041	-1.688658	-9.866601	 4.106204	 89.782100	 78.203850	-180.000000	-35.116430	 73.582430	 32.248160	-14.374060	-15.186390	 29.627160	-14.413220	-55.249320	 6.221993	 6.437017	 35.671460	-0.771858	 2.830251	 35.756010	-7.813440	-2.350882	 35.473990	 5.254307
 3.599692	-0.063487	 0.515272	 80.681980	-2.177722	-1.247656	 8.582491	 28.754940	 179.702500	-1.489417	-11.570350	 1.904260	 5.903149	 78.804470	-0.134138	-2.139956	 49.863900	-0.580614	 4.600625	-33.814870	-178.033200	 2.162531	-40.462670	 5.292006	 15.752280	 89.280450	-9.155948	 2.379740	 29.441960	 0.022945	 9.990740	 3.092807	 1.802619	-10.978420	-1.027220	-0.389925	-12.395880	-2.784545	-1.910396	-91.776180	 78.527420	-180.000000	 40.140630	 62.685570	-56.104890	 3.607350	-18.643710	-46.586350	 10.381230	-54.401270	 2.037372	-3.812334	 37.924440	-2.927599	-2.450526	 36.184240	 0.754587	-1.378229	 35.397820	-2.634230	 1.491126	 2.557203	-5.131989	-1.577145	-10.023440	 4.402619	 89.782090	 78.203830	-180.000000	-33.923280	 73.906400	 30.790340	-16.020960	-16.121970	 29.779910	-16.114450	-55.880280	 5.062726	 6.437017	 35.671460	-0.771858	 2.830251	 35.756010	-7.813440	-2.350882	 35.473990	 5.254307
 3.664834	-0.081747	 0.514834	 81.542870	-2.278574	-1.081439	 9.232080	 31.094700	 177.840100	-0.898354	-11.560170	 1.966383	 5.372682	 72.994930	 1.161507	-2.103560	 51.451260	-0.639730	 3.610134	-32.140790	-178.806000	 4.072824	-42.953710	 6.424383	 3.536401	 87.421090	 3.643601	 2.385628	 28.167880	-0.004770	 4.226242	 2.884100	 1.469990	-11.134150	-1.015317	-0.631485	-12.244200	-2.595200	-2.055426	-91.776180	 78.527400	-180.000000	 41.962680	 64.091370	-55.843050	 5.533484	-19.706150	-45.205060	 12.073940	-53.858800	 3.024149	-3.812334	 37.924440	-2.927599	-2.450526	 36.184240	 0.754587	-1.378229	 35.397820	-2.634230	 1.614586	 2.947969	-5.066961	-1.491790	-10.018750	 4.509786	 89.782110	 78.203870	 180.000000	-32.369270	 74.136020	 28.784050	-17.472100	-17.138860	 30.152340	-17.761830	-55.429640	 3.918907	 6.437017	 35.671460	-0.771858	 2.830251	 35.756010	-7.813440	-2.350882	 35.473990	 5.254307
 3.725531	-0.100034	 0.517758	 82.542090	-2.561636	-1.094762	 8.222318	 29.535480	 176.882900	-1.120228	-18.309740	 1.830163	 4.168015	 67.060020	 0.503182	-2.129702	 50.328500	-0.597544	 2.419893	-30.443760	-179.233800	 4.969657	-45.599980	 6.758573	 3.564722	 84.791540	 3.146787	 2.393888	 26.009350	-0.050691	-1.633068	 2.629751	 1.279431	-11.251740	-0.893877	-0.762175	-12.281570	-2.418304	-2.125792	-91.776180	 78.527400	-180.000000	 43.723340	 65.687550	-55.840300	 7.649009	-20.280750	-42.753880	 13.745850	-52.172630	 3.547033	-3.812334	 37.924440	-2.927599	-2.450526	 36.184240	 0.754587	-1.378229	 35.397820	-2.634230	 1.684736	 3.059084	-4.913164	-1.439946	-9.773440	 4.424248	 89.782100	 78.203870	-180.000000	-32.036800	 74.157290	 28.435330	-18.675610	-18.079500	 30.598300	-19.105590	-53.834130	 3.064871	 6.437017	 35.671460	-0.771858	 2.830251	 35.756010	-7.813440	-2.350882	 35.473990	 5.254307
 3.777183	-0.118890	 0.523558	 83.353090	-2.748357	-1.532429	 7.424417	 20.870640	 175.892200	-1.149603	-35.834250	 1.558498	 2.689071	 62.732380	 0.414441	-2.210150	 46.240360	-0.457671	 1.663991	-29.074710	-179.287300	 5.483551	-47.724860	 6.976086	 3.401038	 84.014050	 2.947049	 2.402657	 22.692400	-0.119104	-7.362754	 2.224543	 1.804823	-11.285680	-0.814533	-0.768519	-12.338030	-2.021952	-2.074698	-91.776180	 78.527380	-180.000000	 44.522900	 67.381610	-55.231320	 9.634158	-20.393870	-39.794910	 15.315230	-49.459690	 3.605943	-3.812334	 37.924440	-2.927599	-2.450526	 36.184240	 0.754587	-1.378229	 35.397820	-2.634230	 1.665352	 2.965997	-4.768069	-1.464292	-9.373831	 4.163289	 89.782120	 78.203870	 180.000000	-32.740290	 73.838020	 29.595670	-19.987460	-18.911040	 30.935700	-20.333530	-51.181160	 2.582614	 6.437017	 35.671460	-0.771858	 2.830251	 35.756010	-7.813440	-2.350882	 35.473990	 5.254307
 3.830386	-0.137602	 0.529306	 84.223650	-3.061577	-0.101297	 7.745313	 14.195070	 172.602400	-2.072585	-49.710490	 0.156450	 1.243181	 56.341920	 0.674499	-2.332471	 36.596500	-0.187884	 0.826038	-25.522480	 178.622700	 6.331938	-47.761520	 7.035808	 3.019855	 84.636180	 3.414142	 2.407275	 18.991070	-0.193053	-13.596850	 3.086029	 0.324238	-11.296810	-0.792822	-1.104436	-12.031120	-2.254821	-2.195326	-91.776180	 78.527400	-180.000000	 43.807860	 69.244560	-53.194680	 10.942370	-20.147520	-37.008370	 16.521140	-45.754410	 3.257643	-3.812334	 37.924440	-2.927599	-2.450526	 36.184240	 0.754587	-1.378229	 35.397820	-2.634230	 1.542575	 2.890332	-4.660026	-1.610634	-9.014344	 3.698794	 89.782120	 78.203930	 180.000000	-33.924780	 73.170680	 31.488310	-21.346990	-19.656800	 31.248030	-21.378900	-47.482590	 2.492208	 6.437017	 35.671460	-0.771858	 2.830251	 35.756010	-7.813440	-2.350882	 35.473990	 5.254307
 3.885446	-0.156700	 0.535337	 85.465980	-3.168777	 1.988298	 6.655022	 6.491970	 169.794500	-4.458888	-62.426100	-3.813982	-0.744739	 55.629250	 0.801623	-2.362078	 32.774390	-0.096449	 0.287847	-21.319270	 175.875100	 7.227715	-46.272700	 6.944651	 1.952943	 85.947980	 4.855006	 2.407689	 17.482100	-0.222656	-20.413880	 3.793859	-1.785251	-11.399900	-0.797313	-1.565295	-12.038790	-2.816586	-2.322892	-91.776180	 78.527400	-180.000000	 42.262900	 70.897870	-50.725020	 11.264320	-19.516250	-34.626960	 16.850290	-40.719580	 2.479920	-3.812334	 37.924440	-2.927599	-2.450526	 36.184240	 0.754587	-1.378229	 35.397820	-2.634230	 1.342120	 2.937051	-4.526702	-1.802447	-9.163762	 3.124360	 89.782120	 78.203870	 180.000000	-36.166710	 72.098430	 35.397580	-22.578780	-20.378720	 31.633800	-22.280860	-42.432950	 2.809103	 6.437017	 35.671460	-0.771858	 2.830251	 35.756010	-7.813440	-2.350882	 35.473990	 5.254307
